<?xml version="1.0" standalone="no"?>
<!DOCTYPE svg PUBLIC "-//W3C//DTD SVG 20010904//EN"
 "http://www.w3.org/TR/2001/REC-SVG-20010904/DTD/svg10.dtd">
<svg version="1.0" xmlns="http://www.w3.org/2000/svg"
 width="512.000000pt" height="512.000000pt" viewBox="0 0 512.000000 512.000000"
 preserveAspectRatio="xMidYMid meet">
<metadata>
Created by potrace 1.14, written by Peter Selinger 2001-2017
</metadata>
<g transform="translate(0.000000,512.000000) scale(0.100000,-0.100000)"
fill="#000000" stroke="none">
<path d="M2102 4540 c-130 -27 -243 -121 -302 -253 l-35 -77 -41 6 c-44 6
-141 -14 -203 -43 -61 -29 -144 -121 -184 -203 -44 -93 -62 -188 -53 -291 l6
-79 -27 -6 c-75 -19 -178 -121 -229 -227 -79 -168 -66 -375 34 -529 l23 -36
-23 -39 c-14 -21 -35 -67 -49 -103 -32 -88 -33 -252 -1 -347 41 -121 133 -234
224 -275 l50 -23 -6 -44 c-3 -24 -6 -49 -6 -56 0 -9 -9 -11 -34 -5 -19 4 -38
5 -43 1 -5 -3 -25 -98 -44 -211 -38 -232 -25 -212 -134 -190 -33 6 -98 20
-144 31 -49 12 -87 17 -93 11 -5 -5 19 -64 57 -141 36 -73 65 -137 65 -144 0
-7 -37 -40 -83 -75 -45 -34 -98 -75 -117 -91 l-35 -30 35 -14 c101 -42 729
-152 750 -131 5 5 14 47 19 93 6 46 13 87 16 89 3 3 74 -2 158 -11 503 -56
1089 -60 1562 -12 77 8 167 18 201 21 l61 6 7 -73 c11 -110 14 -119 45 -119
29 0 196 24 281 40 216 40 419 83 443 92 15 6 27 16 27 23 0 7 -12 21 -27 31
-69 44 -192 151 -193 166 0 9 27 71 60 136 33 66 60 128 60 137 0 20 5 20
-165 -19 -134 -31 -165 -33 -165 -8 0 30 -61 366 -69 382 -5 10 -19 14 -40 12
-24 -3 -31 0 -31 15 0 10 -3 35 -6 55 -6 35 -4 37 33 56 63 33 141 109 177
175 48 88 68 167 69 272 0 103 -19 181 -66 266 l-30 57 37 76 c86 173 80 365
-15 528 -42 72 -124 151 -176 170 l-32 12 6 90 c7 113 -7 190 -51 282 -54 114
-138 193 -242 231 -55 19 -172 22 -216 5 -25 -10 -27 -9 -33 21 -11 52 -65
145 -114 196 -57 60 -118 96 -200 117 -111 28 -227 -7 -327 -99 l-55 -50 -42
40 c-58 55 -94 78 -152 96 -69 22 -122 27 -173 17z m409 -490 c26 -15 26 -54
-1 -45 -10 3 -28 1 -40 -5 -16 -9 -20 -8 -20 6 0 16 27 54 37 54 2 0 13 -5 24
-10z m-222 -215 c57 -20 151 -82 151 -100 0 -20 -12 -19 -44 6 -86 68 -228 88
-314 45 -45 -23 -109 -83 -142 -134 -14 -22 -17 -23 -60 -11 -124 33 -254 -49
-305 -191 -25 -68 -30 -185 -11 -245 l15 -49 -49 -46 c-29 -27 -60 -69 -77
-105 -25 -54 -28 -70 -28 -171 0 -105 2 -113 33 -173 l32 -62 -16 -57 c-35
-120 -14 -261 51 -347 28 -37 31 -43 12 -31 -47 31 -96 118 -117 204 -14 59
-8 130 16 205 16 48 16 49 -14 110 -17 34 -36 90 -43 124 -25 136 39 294 149
363 23 15 23 15 6 60 -25 67 -22 190 5 261 57 149 208 234 326 185 33 -14 33
-14 61 25 96 138 221 185 363 134z m625 1 c17 -7 53 -32 79 -55 27 -22 58 -41
70 -41 39 0 166 -39 226 -70 81 -40 166 -121 201 -191 137 -270 132 -805 -11
-1216 -37 -108 -126 -286 -181 -365 -51 -72 -70 -77 -21 -6 69 103 143 268
193 433 101 330 105 792 9 1050 -58 157 -169 251 -359 306 -36 11 -74 19 -86
19 -11 0 -33 14 -50 31 -46 49 -116 80 -182 80 -68 0 -122 -18 -196 -65 -40
-26 -56 -31 -60 -21 -6 16 14 34 82 74 99 58 203 72 286 37z m296 -363 c0 -35
-10 -42 -29 -19 -8 10 -8 21 0 45 14 39 29 25 29 -26z m-760 -304 c-11 -41
-58 -99 -79 -99 -6 0 4 20 23 45 19 24 40 61 47 82 16 50 24 27 9 -28z m639
-51 c1 -19 -4 -28 -14 -28 -16 0 -21 44 -8 76 6 16 7 16 14 -2 4 -10 8 -31 8
-46z m-1149 36 c0 -19 -63 -84 -81 -84 -7 0 1 14 19 31 17 17 34 39 37 50 8
23 25 25 25 3z m1430 -36 c0 -19 -26 -36 -37 -25 -3 3 -2 23 2 44 6 35 8 37
21 18 8 -10 14 -27 14 -37z m-600 17 c15 -18 6 -45 -15 -45 -10 0 -15 10 -15
30 0 33 11 38 30 15z m-150 -407 c0 -19 -5 -28 -15 -28 -22 0 -28 22 -15 55 9
23 13 26 20 15 6 -8 10 -27 10 -42z m318 0 c-4 -25 -26 -36 -33 -16 -3 8 -1
28 5 44 10 26 13 27 21 11 6 -10 9 -27 7 -39z m275 -16 c-9 -23 -38 -8 -35 18
5 49 14 57 27 25 7 -16 10 -35 8 -43z m-982 -51 c-20 -38 -55 -71 -75 -71 -5
0 2 12 16 28 29 30 67 102 70 129 0 10 3 4 5 -14 3 -19 -4 -47 -16 -72z m-401
28 c-11 -41 -58 -99 -79 -99 -6 0 5 20 23 45 19 25 40 61 48 81 17 46 22 28 8
-27z m965 -279 c7 -33 1 -50 -21 -50 -15 0 -18 20 -8 58 9 31 21 28 29 -8z
m320 -12 c5 -21 3 -29 -9 -34 -24 -9 -29 0 -22 42 8 39 20 36 31 -8z m270 11
c8 -34 -8 -60 -25 -43 -11 11 -2 74 10 74 5 0 11 -14 15 -31z m-1555 -145 c-8
-28 -25 -55 -47 -74 -48 -43 -61 -37 -18 8 19 20 43 58 53 85 20 57 29 44 12
-19z m491 -27 c-19 -40 -75 -86 -88 -73 -3 3 2 8 11 12 21 8 73 82 83 120 7
27 8 27 11 6 2 -12 -6 -42 -17 -65z m322 -157 c8 -33 -7 -60 -24 -43 -7 7 -9
25 -5 49 8 38 19 36 29 -6z m317 -17 c0 -22 -5 -33 -14 -33 -20 0 -24 20 -14
59 7 26 12 31 19 20 5 -8 9 -29 9 -46z m274 -18 c-3 -8 -10 -15 -14 -15 -16 0
-21 20 -14 57 l7 38 14 -32 c7 -18 10 -39 7 -48z m-1542 -35 c10 -40 32 -99
48 -129 30 -54 30 -55 5 -26 -44 51 -74 120 -89 203 -4 24 -2 32 6 30 7 -3 20
-37 30 -78z m388 -87 c-18 -55 -36 -80 -73 -99 l-32 -17 36 40 c19 21 44 60
55 86 22 53 32 46 14 -10z m-740 -209 c-21 -74 -21 -78 -4 -91 10 -7 44 -13
76 -13 67 0 69 3 92 114 7 33 18 62 24 64 18 6 15 -23 -12 -123 -13 -49 -32
-130 -41 -180 -19 -95 -28 -116 -45 -99 -8 8 -5 33 10 85 25 91 20 97 -75 101
l-69 3 -21 -74 c-11 -41 -26 -76 -32 -79 -20 -6 -15 27 17 124 17 49 40 125
51 169 24 92 28 100 41 87 6 -6 2 -37 -12 -88z m1400 -36 c32 -34 30 -65 -7
-122 l-25 -38 31 -30 c43 -42 43 -98 1 -156 -35 -49 -64 -70 -105 -74 -24 -2
-30 1 -30 17 0 14 10 22 37 28 51 12 88 57 88 107 0 49 -18 64 -70 55 -53 -9
-52 6 4 56 54 49 73 88 56 119 -11 20 -17 22 -57 16 -26 -3 -52 -11 -58 -16
-14 -11 -22 -74 -31 -242 -5 -72 -11 -111 -20 -119 -24 -20 -27 16 -13 149 14
138 14 145 -4 181 -10 21 -8 26 17 46 59 47 152 59 186 23z m961 -45 c8 -39
14 -131 14 -216 0 -146 0 -148 -25 -167 -14 -11 -38 -20 -55 -20 -36 0 -95 34
-95 55 0 20 13 19 33 -3 12 -13 27 -17 56 -14 37 4 42 7 51 41 16 56 13 181
-4 181 -7 0 -21 -11 -30 -25 -22 -33 -60 -57 -79 -49 -9 3 -22 22 -28 43 -14
49 -8 203 9 209 9 3 12 -19 12 -86 0 -50 3 -97 6 -106 11 -29 43 -17 75 27 30
41 31 44 25 120 -5 62 -4 77 8 77 9 0 18 -23 27 -67z m-233 25 c7 -7 12 -21
12 -31 0 -16 -5 -18 -25 -13 -24 6 -28 2 -52 -51 -18 -39 -28 -80 -31 -130 -5
-82 -25 -114 -42 -69 -13 35 -32 239 -24 260 16 41 34 5 30 -59 -4 -69 17 -92
29 -32 10 43 51 124 67 130 20 8 23 8 36 -5z m-1758 -33 c11 -13 11 -38 2
-128 -7 -62 -11 -122 -9 -134 4 -41 -18 -25 -25 18 -10 55 -15 59 -42 28 -58
-68 -101 -58 -94 21 6 55 40 127 84 175 34 38 64 44 84 20z m126 -50 c-3 -30
-2 -55 3 -55 5 0 21 16 35 35 15 20 39 43 53 52 24 16 26 16 40 -3 23 -30 12
-133 -21 -188 -41 -70 -112 -116 -131 -86 -13 20 -24 -2 -41 -78 -18 -85 -31
-115 -44 -107 -4 3 -2 31 6 63 29 113 62 278 69 342 7 70 11 80 27 80 7 0 8
-19 4 -55z m1408 39 c27 -26 20 -44 -13 -38 -27 6 -31 2 -54 -42 -27 -53 -47
-135 -47 -189 0 -38 -24 -49 -34 -17 -12 37 -23 238 -15 260 16 41 29 13 29
-61 0 -39 4 -67 8 -61 5 5 21 39 36 77 35 83 59 102 90 71z m-1162 -77 c-5
-48 -4 -51 12 -38 10 8 24 27 32 43 8 15 28 34 44 43 27 14 30 14 44 -7 20
-28 20 -71 2 -132 -29 -94 -107 -174 -142 -145 -22 18 -30 3 -44 -86 -14 -93
-25 -120 -36 -92 -4 10 5 76 19 145 14 70 31 172 38 227 6 55 14 104 17 109
11 19 19 -18 14 -67z m893 56 c13 -12 16 -28 12 -61 -6 -52 -29 -88 -80 -121
-20 -13 -37 -29 -37 -35 0 -24 20 -39 51 -39 24 0 38 8 59 33 38 46 46 22 10
-29 -45 -61 -96 -68 -134 -18 -29 39 -28 124 3 192 39 88 80 115 116 78z
m-529 -152 c-8 -145 -37 -275 -69 -309 -17 -18 -29 -22 -51 -18 -35 7 -62 29
-69 57 -6 24 -1 24 30 -1 41 -32 71 -26 90 18 19 46 39 159 30 168 -4 4 -20
-5 -35 -19 -31 -30 -76 -36 -86 -11 -14 36 8 211 28 232 19 19 21 -27 3 -88
-24 -82 -18 -120 17 -120 17 0 34 13 55 42 26 35 31 51 31 99 0 65 7 92 22 83
7 -5 8 -50 4 -133z"/>
<path d="M1658 1599 c-48 -27 -108 -175 -79 -193 27 -17 121 112 121 165 0 25
-22 39 -42 28z"/>
<path d="M1894 1543 c-46 -49 -76 -110 -72 -145 9 -99 128 23 128 132 0 49
-19 53 -56 13z"/>
<path d="M2137 1518 c-38 -51 -67 -114 -67 -147 0 -106 121 14 124 123 1 63
-20 73 -57 24z"/>
<path d="M2911 1549 c-27 -30 -44 -99 -25 -106 19 -7 53 24 70 64 24 56 -6 84
-45 42z"/>
<path d="M2622 1023 c-28 -52 -45 -404 -21 -419 21 -13 29 21 29 126 0 58 7
144 16 193 16 86 14 117 -5 117 -6 0 -14 -8 -19 -17z"/>
<path d="M3081 988 c-39 -40 -50 -66 -34 -82 10 -10 93 75 93 95 0 33 -17 29
-59 -13z"/>
<path d="M1754 966 l-31 -14 -6 -160 c-4 -88 -4 -168 -1 -177 13 -32 29 -7 32
49 3 55 4 58 40 74 117 54 165 147 111 216 -17 22 -28 26 -67 26 -26 -1 -61
-7 -78 -14z m114 -48 c29 -29 -3 -85 -70 -119 l-40 -20 7 63 c4 39 13 68 23
76 20 15 64 16 80 0z"/>
<path d="M2313 968 c-6 -7 -14 -34 -18 -60 -6 -42 -10 -48 -31 -48 -30 0 -33
-32 -4 -51 17 -12 18 -19 10 -54 -22 -93 -6 -145 45 -145 26 0 65 42 65 71 0
24 -12 24 -35 -1 -28 -31 -35 -24 -34 28 2 89 10 106 49 112 29 4 35 9 35 30
0 22 -4 25 -31 22 l-31 -3 7 40 c8 47 -8 83 -27 59z"/>
<path d="M2148 870 c-52 -55 -51 -86 4 -146 34 -37 39 -47 27 -55 -15 -9 -23
-11 -54 -13 -14 -1 -20 -8 -20 -26 0 -22 4 -25 38 -24 86 3 115 83 52 144 -45
44 -45 80 0 95 38 12 46 24 34 47 -15 28 -39 21 -81 -22z"/>
<path d="M2478 893 c-9 -2 -31 -32 -48 -65 -35 -71 -41 -157 -14 -196 32 -46
108 -14 135 56 16 42 -2 46 -37 8 -37 -40 -46 -43 -64 -21 -10 12 -4 23 34 66
77 85 73 174 -6 152z m22 -62 c0 -11 -39 -59 -40 -49 0 14 23 58 32 58 4 0 8
-4 8 -9z"/>
<path d="M2738 890 c-43 -26 -84 -144 -73 -212 14 -78 73 -93 124 -31 51 62
38 106 -14 46 -22 -25 -37 -35 -48 -30 -26 10 -20 40 14 73 39 37 59 75 59
112 0 45 -26 62 -62 42z m11 -84 c-11 -24 -29 -36 -29 -18 0 12 31 54 36 49 3
-2 -1 -16 -7 -31z"/>
<path d="M1988 863 c-36 -39 -55 -79 -66 -143 -17 -95 14 -130 72 -80 l34 30
11 -31 c14 -42 47 -37 43 6 -2 17 -3 69 -2 117 0 70 -3 91 -17 108 -24 27 -44
25 -75 -7z m42 -70 c-8 -44 -32 -94 -54 -112 -14 -12 -16 -10 -16 15 0 29 31
106 52 131 17 21 26 6 18 -34z"/>
<path d="M3167 863 c-51 -54 -87 -166 -68 -216 14 -35 46 -36 82 -1 l27 25 11
-31 c13 -40 48 -39 42 0 -2 14 -4 66 -5 115 -1 132 -31 168 -89 108z m43 -60
c0 -34 -31 -103 -53 -122 -15 -12 -17 -11 -17 12 0 29 25 104 41 124 18 21 29
15 29 -14z"/>
<path d="M2853 853 c-12 -46 -8 -232 5 -245 19 -19 34 3 43 63 5 28 19 73 31
98 20 40 26 46 51 43 26 -3 28 -1 25 24 -4 34 -31 53 -55 38 -10 -6 -28 -28
-40 -50 l-23 -39 6 48 c6 43 5 47 -14 47 -15 0 -24 -8 -29 -27z"/>
<path d="M3026 855 c-3 -8 -8 -66 -12 -128 -5 -85 -4 -116 5 -122 23 -13 33
12 36 87 1 40 6 97 10 126 7 48 6 52 -13 52 -11 0 -22 -7 -26 -15z"/>
</g>
</svg>
